<svg width="61" height="62" viewBox="0 0 61 62" fill="none" xmlns="http://www.w3.org/2000/svg">
<g clip-path="url(#clip0_1_75)">
<path d="M22.9771 24.1918C22.9771 24.1918 23.4922 23.6767 24.5225 22.6464C25.5527 21.6161 27.5453 21.101 30.5 21.101C33.4547 21.101 35.9624 22.1312 38.0229 24.1918C40.0835 26.2523 41.1138 28.76 41.1138 31.7147C41.1138 34.6695 40.0835 37.1771 38.0229 39.2377C35.9624 41.2982 33.4547 42.3285 30.5 42.3285C26.6899 42.3285 23.7352 40.7345 21.6358 37.5465C21.558 37.4687 21.5191 37.391 21.5191 37.3132C20.4305 35.6026 19.8862 33.7364 19.8862 31.7147C19.8862 28.76 20.9165 26.2523 22.9771 24.1918ZM22.8021 34.8639L26.7677 30.8983C27.312 30.354 27.8563 30.354 28.4006 30.8983L30.8499 33.3476L37.2648 26.9327C35.6319 24.6 33.377 23.4337 30.5 23.4337C29.4114 23.4337 28.3423 23.6475 27.2925 24.0752C26.2428 24.5028 25.3486 25.086 24.6099 25.8247C23.8713 26.5634 23.2881 27.4576 22.8604 28.5073C22.4328 29.557 22.2189 30.6261 22.2189 31.7147C22.2189 32.8033 22.4133 33.853 22.8021 34.8639ZM30.5 39.9958C32.7549 39.9958 34.6989 39.1794 36.3317 37.5465C37.9646 35.9136 38.7811 33.9697 38.7811 31.7147C38.7811 30.8594 38.6256 30.0041 38.3145 29.1488L31.6663 35.797C31.1221 36.3412 30.5778 36.3412 30.0335 35.797L27.5841 33.3476L24.0851 36.9633C25.718 38.985 27.8563 39.9958 30.5 39.9958ZM48.4618 30.8983C49.7836 31.5203 50.9694 32.3368 52.0191 33.3476C53.0688 34.3585 53.8658 35.5442 54.4101 36.905C54.9544 38.2657 55.2266 39.6848 55.2266 41.1622V49.4432C55.2266 50.2208 54.8378 50.6096 54.0602 50.6096H42.8633V56.6746C42.8633 57.4521 42.4745 57.8409 41.6969 57.8409C40.9194 57.8409 40.5306 57.4521 40.5306 56.6746V50.6096H36.9149C36.6816 54.2641 35.2431 57.3744 32.5994 59.9404L31.3164 61.2233C31.0832 61.4566 30.811 61.5732 30.5 61.5732C30.189 61.5732 29.9168 61.4566 29.6836 61.2233L28.4006 59.9404C25.7569 57.3744 24.3184 54.2641 24.0851 50.6096H6.93977C6.1622 50.6096 5.77342 50.2208 5.77342 49.4432V41.1622C5.77342 38.9072 6.39547 36.8467 7.63958 34.9805C8.88368 33.1144 10.5166 31.7536 12.5382 30.8983C12.7715 25.0666 14.3266 19.6625 17.2036 14.6861C20.3139 9.32085 24.5516 5.08312 29.9168 1.97286C30.3056 1.73959 30.6944 1.73959 31.0832 1.97286C36.4484 5.08312 40.6861 9.32085 43.7964 14.6861C46.6734 19.6625 48.2285 25.0666 48.4618 30.8983ZM30.5 4.42219C26.8454 6.59937 23.7352 9.39861 21.1692 12.8199H39.8308C37.2648 9.39861 34.1546 6.59937 30.5 4.42219ZM8.10612 48.2769H12.7715C12.616 47.8881 12.5382 47.4993 12.5382 47.1105V33.5809C9.58349 35.2138 8.10612 37.7409 8.10612 41.1622V48.2769ZM30.9665 58.3075C33.1437 56.208 34.3489 53.6421 34.5822 50.6096H26.4178C26.6511 53.6421 27.8563 56.208 30.0335 58.3075L30.5 58.774L30.9665 58.3075ZM46.1291 47.1105V32.0646C46.1291 25.9996 44.5351 20.3623 41.347 15.1526H19.653C19.1864 15.9302 18.7588 16.7077 18.37 17.4853H22.5688C23.3464 17.4853 23.7352 17.8741 23.7352 18.6516C23.7352 19.4292 23.3464 19.818 22.5688 19.818H17.2036C15.6485 23.7836 14.8709 27.8658 14.8709 32.0646V47.1105C14.8709 47.8881 15.2597 48.2769 16.0373 48.2769H44.9627C45.7403 48.2769 46.1291 47.8881 46.1291 47.1105ZM52.8939 48.2769V41.1622C52.8939 37.7409 51.4165 35.2138 48.4618 33.5809V47.1105C48.4618 47.4993 48.384 47.8881 48.2285 48.2769H52.8939ZM26.7677 17.4853C26.7677 17.4853 26.8454 17.4853 27.001 17.4853C27.1565 17.4853 27.3509 17.6019 27.5841 17.8352C27.8174 18.0685 27.934 18.3601 27.934 18.71C27.934 19.0599 27.8174 19.332 27.5841 19.5264C27.3509 19.7208 27.0787 19.818 26.7677 19.818C26.4567 19.818 26.1845 19.7208 25.9512 19.5264C25.718 19.332 25.6013 19.0599 25.6013 18.71C25.6013 18.3601 25.718 18.0685 25.9512 17.8352C26.1845 17.6019 26.4567 17.4853 26.7677 17.4853ZM18.1367 54.9251C18.1367 54.1475 18.5255 53.7587 19.3031 53.7587C20.0806 53.7587 20.4694 54.1475 20.4694 54.9251V58.5407C20.4694 59.3183 20.0806 59.7071 19.3031 59.7071C18.5255 59.7071 18.1367 59.3183 18.1367 58.5407V54.9251ZM41.6969 59.2405C41.6969 59.2405 41.7747 59.2405 41.9302 59.2405C42.0857 59.2405 42.2801 59.3572 42.5134 59.5905C42.7467 59.8237 42.8633 60.0959 42.8633 60.4069C42.8633 60.7179 42.7467 60.9901 42.5134 61.2233C42.2801 61.4566 42.008 61.5732 41.6969 61.5732C41.3859 61.5732 41.1138 61.4566 40.8805 61.2233C40.6472 60.9901 40.5306 60.7179 40.5306 60.4069C40.5306 60.0959 40.6472 59.8237 40.8805 59.5905C41.1138 59.3572 41.3859 59.2405 41.6969 59.2405Z" fill="#FF5C97"/>
</g>
<defs>
<clipPath id="clip0_1_75">
<rect width="60" height="61" fill="white" transform="matrix(1 0 0 -1 0.5 61.6899)"/>
</clipPath>
</defs>
</svg>
