<svg width="73" height="74" viewBox="0 0 73 74" fill="none" xmlns="http://www.w3.org/2000/svg">
<g clip-path="url(#clip0_1_22)">
<path d="M64.9742 63.5403C65.3464 64.0986 65.3464 64.6337 64.9742 65.1455C64.602 65.6573 64.0902 65.8201 63.4388 65.634L54.2266 63.1216L51.7141 72.4734C51.528 73.0317 51.1558 73.3574 50.5975 73.4504C50.5045 73.4504 50.4114 73.4504 50.3183 73.4504C49.8531 73.4504 49.4809 73.2178 49.2017 72.7525L36.5 50.8386L23.7983 72.7525C23.5191 73.2178 23.1469 73.4504 22.6816 73.4504C22.5886 73.4504 22.4955 73.4504 22.4025 73.4504C21.8442 73.3574 21.4719 73.0317 21.2858 72.4734L18.7734 63.1216L9.56117 65.634C8.9098 65.8201 8.39801 65.6573 8.0258 65.1455C7.65359 64.6337 7.65359 64.0986 8.0258 63.5403L20.0296 42.743C15.1909 38.0903 12.7715 32.4141 12.7715 25.7143C12.7715 19.2006 15.0978 13.6174 19.7505 8.96478C24.4031 4.31213 29.9863 1.98581 36.5 1.98581C43.0137 1.98581 48.5969 4.31213 53.2495 8.96478C57.9022 13.6174 60.2285 19.2006 60.2285 25.7143C60.2285 32.4141 57.8091 38.0903 52.9704 42.743L64.9742 63.5403ZM21.7046 10.9189C21.7046 10.9189 20.681 11.9425 18.6338 13.9896C16.5867 16.0368 15.5631 19.945 15.5631 25.7143C15.5631 31.4836 17.6103 36.4154 21.7046 40.5097C25.7989 44.604 30.7307 46.6512 36.5 46.6512C42.2693 46.6512 47.2011 44.604 51.2954 40.5097C55.3897 36.4154 57.4369 31.4836 57.4369 25.7143C57.4369 19.945 55.3897 15.0132 51.2954 10.9189C47.2011 6.82456 42.2693 4.7774 36.5 4.7774C30.7307 4.7774 25.7989 6.82456 21.7046 10.9189ZM23.1004 68.4256L34.1271 49.3032C29.6606 48.8379 25.6593 47.256 22.1233 44.5575L12.0736 62.0049L19.4713 60.0508C19.8435 59.9578 20.1925 60.0043 20.5182 60.1904C20.8438 60.3765 21.0532 60.6557 21.1463 61.0279L23.1004 68.4256ZM53.5287 60.0508L60.9264 62.0049L50.8767 44.5575C47.3407 47.256 43.3394 48.8379 38.8728 49.3032L49.8996 68.4256L51.8537 61.0279C51.9468 60.6557 52.1561 60.3765 52.4818 60.1904C52.8075 60.0043 53.1565 59.9578 53.5287 60.0508ZM28.4044 25.4351C27.66 24.6907 27.4506 23.83 27.7763 22.8529C28.102 21.8759 28.7766 21.2943 29.8002 21.1082L32.8709 20.6894L34.2667 17.8979C34.732 16.9673 35.4764 16.5021 36.5 16.5021C37.5236 16.5021 38.268 16.9673 38.7333 17.8979L40.1291 20.6894L43.1998 21.1082C44.2234 21.2943 44.898 21.8759 45.2237 22.8529C45.5494 23.83 45.34 24.6907 44.5956 25.4351L42.3623 27.6684L42.9206 30.7392C43.1067 31.7627 42.7811 32.577 41.9436 33.1818C41.1061 33.7866 40.2221 33.8564 39.2916 33.3912L36.5 31.8558L33.7084 33.3912C33.3362 33.5773 32.964 33.6703 32.5918 33.6703C32.0335 33.6703 31.5217 33.4842 31.0564 33.112C30.2189 32.5537 29.8932 31.7627 30.0793 30.7392L30.6377 27.6684L28.4044 25.4351ZM33.9876 23.3414L30.7772 23.8998L33.1501 26.133C33.4292 26.5052 33.5688 26.924 33.5688 27.3893L33.0105 30.5996L35.8021 29.0642C36.2674 28.8781 36.7326 28.8781 37.1979 29.0642L39.9895 30.5996L39.5707 27.3893C39.4777 26.924 39.5707 26.5052 39.8499 26.133L42.2227 23.8998L39.0124 23.3414C38.5472 23.2484 38.1749 23.0158 37.8958 22.6436L36.5 19.7124L35.1042 22.6436C34.825 23.0158 34.4528 23.2484 33.9876 23.3414ZM48.9226 38.1369C48.9226 38.1369 48.0618 38.9976 46.3403 40.7191C44.6189 42.4406 41.3387 43.3013 36.5 43.3013C31.6612 43.3013 27.5204 41.5798 24.0774 38.1369C20.6345 34.6939 18.913 30.5531 18.913 25.7143C18.913 22.1783 19.9133 18.9214 21.9139 15.9437C23.9146 12.9661 26.5433 10.7793 29.8002 9.38351C30.6377 9.10435 31.2425 9.38351 31.6147 10.221C31.9869 11.0585 31.7543 11.6633 30.9168 12.0355C28.1252 13.1522 25.892 14.9667 24.217 17.4791C22.5421 19.9915 21.7046 22.7366 21.7046 25.7143C21.7046 29.8086 23.1469 33.2981 26.0315 36.1828C28.9162 39.0674 32.4057 40.5097 36.5 40.5097C40.5943 40.5097 44.0838 39.0674 46.9684 36.1828C49.8531 33.2981 51.2954 29.8086 51.2954 25.7143C51.2954 24.6907 51.2024 23.7137 51.0162 22.7831C50.8301 21.8526 50.551 20.9453 50.1788 20.0613C49.8066 19.1773 49.3413 18.3166 48.783 17.4791C48.2247 16.6416 47.6198 15.8972 46.9684 15.2458C46.3171 14.5945 45.5726 13.9896 44.7352 13.4313C43.8977 12.873 43.0137 12.4077 42.0832 12.0355C41.2457 11.6633 41.0131 11.0585 41.3853 10.221C41.7575 9.38351 42.3623 9.15089 43.1998 9.52309C46.5497 10.8258 49.2017 12.9661 51.1558 15.9437C53.1099 18.9214 54.087 22.1783 54.087 25.7143C54.087 30.5531 52.3655 34.6939 48.9226 38.1369ZM37.477 10.5001C37.477 10.5001 37.4073 10.5699 37.2677 10.7095C37.1281 10.8491 36.8722 10.9189 36.5 10.9189C36.1278 10.9189 35.8021 10.7793 35.5229 10.5001C35.2438 10.221 35.1042 9.89531 35.1042 9.52309C35.1042 9.15089 35.2438 8.8252 35.5229 8.54604C35.8021 8.26688 36.1278 8.1273 36.5 8.1273C36.8722 8.1273 37.1979 8.26688 37.477 8.54604C37.7562 8.8252 37.8958 9.15089 37.8958 9.52309C37.8958 9.89531 37.7562 10.221 37.477 10.5001Z" fill="#FF5C97"/>
</g>
<defs>
<clipPath id="clip0_1_22">
<rect width="73" height="73" fill="white" transform="matrix(1 0 0 -1 0 73.59)"/>
</clipPath>
</defs>
</svg>
