<svg width="73" height="74" viewBox="0 0 73 74" fill="none" xmlns="http://www.w3.org/2000/svg">
<g clip-path="url(#clip0_1_44)">
<path d="M6.76961 11.4772V9.10435H22.2629V11.4772H6.76961ZM6.76961 16.2229V13.8501H22.2629V16.2229H6.76961ZM6.76961 21.1082V18.5958H17.3776V21.1082H6.76961ZM6.76961 25.8539V23.481H17.3776V25.8539H6.76961ZM0.7677 73.4504V71.0776H72.2323V73.4504H0.7677ZM69.7199 12.1751C70.0921 12.9195 69.9293 13.4546 69.2314 13.7803C68.5335 14.1059 67.9984 13.9431 67.6262 13.2917L64.1367 6.17319L62.1826 11.7564C57.9022 23.9463 50.6441 34.0193 40.4082 41.9753C30.1724 49.9313 18.5873 54.4676 5.65298 55.5843L5.37382 53.2114C17.8429 52.0948 29.0093 47.7213 38.8729 40.091C48.7365 32.4606 55.762 22.7366 59.9493 10.9189L61.7639 5.61488L54.9245 8.96478C54.1801 9.33699 53.645 9.17415 53.3193 8.47625C52.9936 7.77835 53.1565 7.2433 53.8079 6.87109L63.2993 2.12539C64.0437 1.75317 64.602 1.93929 64.9742 2.68371L69.7199 12.1751ZM15.0048 59.2133C15.8423 59.2133 16.261 59.5856 16.261 60.33V67.4485C16.261 68.286 15.8423 68.7047 15.0048 68.7047H6.76961C5.93214 68.7047 5.5134 68.286 5.5134 67.4485V60.33C5.5134 59.5856 5.93214 59.2133 6.76961 59.2133H15.0048ZM13.8882 66.3319V61.5862H7.88625V66.3319H13.8882ZM28.1253 55.5843C28.9627 55.5843 29.3815 56.003 29.3815 56.8405V67.4485C29.3815 68.286 28.9627 68.7047 28.1253 68.7047H19.8901C19.0526 68.7047 18.6339 68.286 18.6339 67.4485V56.8405C18.6339 56.003 19.0526 55.5843 19.8901 55.5843H28.1253ZM27.0086 66.3319V57.9571H21.0067V66.3319H27.0086ZM41.2457 49.5824C42.0832 49.5824 42.5019 50.0011 42.5019 50.8386V67.4485C42.5019 68.286 42.0832 68.7047 41.2457 68.7047H32.871C32.1265 68.7047 31.7543 68.286 31.7543 67.4485V50.8386C31.7543 50.0011 32.1265 49.5824 32.871 49.5824H41.2457ZM40.1291 66.3319V51.9552H34.1272V66.3319H40.1291ZM54.3662 41.3472C55.2036 41.3472 55.6224 41.7194 55.6224 42.4638V67.4485C55.6224 68.286 55.2036 68.7047 54.3662 68.7047H45.9914C45.247 68.7047 44.8748 68.286 44.8748 67.4485V42.4638C44.8748 41.7194 45.247 41.3472 45.9914 41.3472H54.3662ZM53.11 66.3319V43.72H47.2476V66.3319H53.11ZM67.4866 24.5977C68.2311 24.5977 68.6033 25.0164 68.6033 25.8539V67.4485C68.6033 68.286 68.2311 68.7047 67.4866 68.7047H59.1119C58.3674 68.7047 57.9952 68.286 57.9952 67.4485V25.8539C57.9952 25.0164 58.3674 24.5977 59.1119 24.5977H67.4866ZM66.2304 66.3319V26.9705H60.3681V66.3319H66.2304Z" fill="#FF5C97"/>
</g>
<defs>
<clipPath id="clip0_1_44">
<rect width="73" height="73" fill="white" transform="matrix(1 0 0 -1 0 73.59)"/>
</clipPath>
</defs>
</svg>
