<svg width="61" height="62" viewBox="0 0 61 62" fill="none" xmlns="http://www.w3.org/2000/svg">
<g clip-path="url(#clip0_1_65)">
<path d="M22.2189 12.1784C22.2189 12.1784 22.044 11.9937 21.6941 11.6244C21.3442 11.255 21.1692 10.565 21.1692 9.55412C21.1692 8.54329 21.5191 7.66853 22.2189 6.92984C22.9187 6.19115 23.7935 5.82181 24.8432 5.82181C25.8929 5.82181 26.7871 6.19115 27.5258 6.92984C28.2645 7.66853 28.6338 8.54329 28.6338 9.55412C28.6338 10.565 28.2645 11.4397 27.5258 12.1784C26.7871 12.9171 25.8929 13.2864 24.8432 13.2864C23.7935 13.2864 22.9187 12.9171 22.2189 12.1784ZM26.3011 10.9537C26.3011 10.9537 26.3983 10.8565 26.5927 10.6622C26.7871 10.4678 26.8843 10.0984 26.8843 9.55412C26.8843 9.00983 26.6899 8.54329 26.3011 8.1545C25.9124 7.76572 25.4458 7.57133 24.9015 7.57133C24.3572 7.57133 23.8907 7.76572 23.5019 8.1545C23.1131 8.54329 22.9187 9.00983 22.9187 9.55412C22.9187 10.0984 23.1131 10.565 23.5019 10.9537C23.8907 11.3425 24.3572 11.5369 24.9015 11.5369C25.4458 11.5369 25.9124 11.3425 26.3011 10.9537ZM38.7811 12.1784C38.7811 12.1784 38.6061 12.3631 38.2562 12.7324C37.9063 13.1018 37.2065 13.2864 36.1568 13.2864C35.1071 13.2864 34.2129 12.9171 33.4742 12.1784C32.7355 11.4397 32.3662 10.565 32.3662 9.55412C32.3662 8.54329 32.7355 7.66853 33.4742 6.92984C34.2129 6.19115 35.1071 5.82181 36.1568 5.82181C37.2065 5.82181 38.0813 6.19115 38.7811 6.92984C39.4809 7.66853 39.8308 8.54329 39.8308 9.55412C39.8308 10.565 39.4809 11.4397 38.7811 12.1784ZM36.0985 7.57133C35.8652 7.57133 35.6514 7.59077 35.457 7.62965C35.2626 7.66853 35.0876 7.76572 34.9321 7.92123C34.7766 8.07675 34.6405 8.23226 34.5239 8.38777C34.4073 8.54329 34.3101 8.71824 34.2323 8.91263C34.1546 9.10702 34.1157 9.32085 34.1157 9.55412C34.1157 10.0984 34.3101 10.565 34.6988 10.9537C35.0876 11.3425 35.5542 11.5369 36.0985 11.5369C36.6428 11.5369 37.1093 11.3425 37.4981 10.9537C37.8869 10.565 38.0813 10.0984 38.0813 9.55412C38.0813 9.00983 37.8869 8.54329 37.4981 8.1545C37.1093 7.76572 36.6428 7.57133 36.0985 7.57133ZM46.7122 6.63825C48.8117 6.63825 50.6001 7.37694 52.0774 8.85431C53.5548 10.3317 54.2935 12.1201 54.2935 14.2195V53.992C54.2935 56.0914 53.5548 57.8798 52.0774 59.3572C50.6001 60.8346 48.8117 61.5732 46.7122 61.5732H14.2878C12.1883 61.5732 10.3999 60.8346 8.92256 59.3572C7.44518 57.8798 6.7065 56.0914 6.7065 53.992V14.2195C6.7065 12.1201 7.44518 10.3317 8.92256 8.85431C10.3999 7.37694 12.1883 6.63825 14.2878 6.63825H16.6205C16.6982 5.31639 17.2425 4.18892 18.2533 3.25584C19.2642 2.32276 20.4305 1.85622 21.7524 1.85622H31.5497C32.094 1.85622 32.3662 2.14781 32.3662 2.73098C32.3662 3.31416 32.094 3.60575 31.5497 3.60575H21.7524C20.8193 3.60575 20.0223 3.93621 19.3614 4.59714C18.7004 5.25807 18.37 6.05508 18.37 6.98816V12.2367C18.37 13.1698 18.7004 13.9668 19.3614 14.6277C20.0223 15.2887 20.8193 15.6191 21.7524 15.6191H39.2476C40.1807 15.6191 40.9777 15.2887 41.6386 14.6277C42.2995 13.9668 42.63 13.1698 42.63 12.2367V6.98816C42.63 6.05508 42.2995 5.25807 41.6386 4.59714C40.9777 3.93621 40.1807 3.60575 39.2476 3.60575H35.0488C34.4267 3.60575 34.1157 3.31416 34.1157 2.73098C34.1157 2.14781 34.4267 1.85622 35.0488 1.85622H39.2476C40.5695 1.85622 41.7358 2.32276 42.7467 3.25584C43.7575 4.18892 44.3018 5.31639 44.3795 6.63825H46.7122ZM52.544 53.992V14.2195C52.544 12.5866 51.9608 11.2064 50.7945 10.079C49.6281 8.95151 48.2674 8.38777 46.7122 8.38777H44.3795V12.2367C44.3795 12.3922 44.3795 12.5477 44.3795 12.7033H45.3126C45.7792 12.7033 46.2457 12.8005 46.7122 12.9948C47.1788 13.1892 47.5676 13.4419 47.8786 13.753C48.1896 14.064 48.4423 14.4333 48.6367 14.861C48.8311 15.2887 48.9283 15.7358 48.9283 16.2023V51.8926C48.9283 52.9034 48.5784 53.7587 47.8786 54.4585C47.1788 55.1583 46.3235 55.5082 45.3126 55.5082H15.6874C14.6765 55.5082 13.8212 55.1583 13.1214 54.4585C12.4216 53.7587 12.0717 52.9034 12.0717 51.8926V47.2272C12.0717 46.6051 12.3633 46.2941 12.9465 46.2941C13.5296 46.2941 13.8212 46.6051 13.8212 47.2272V51.8926C13.8212 52.4368 14.0156 52.8839 14.4044 53.2339C14.7932 53.5838 15.2208 53.7587 15.6874 53.7587H45.3126C45.7792 53.7587 46.2068 53.5838 46.5956 53.2339C46.9844 52.8839 47.1788 52.4368 47.1788 51.8926V16.2023C47.1788 15.7358 46.9844 15.3275 46.5956 14.9776C46.2068 14.6277 45.7792 14.4528 45.3126 14.4528H43.913C42.9799 16.3967 41.4248 17.3687 39.2476 17.3687H21.7524C19.5752 17.3687 18.0201 16.3967 17.087 14.4528H15.6874C15.2208 14.4528 14.7932 14.6277 14.4044 14.9776C14.0156 15.3275 13.8212 15.7358 13.8212 16.2023V43.7281C13.8212 44.2724 13.5296 44.5446 12.9465 44.5446C12.3633 44.5446 12.0717 44.2724 12.0717 43.7281V16.2023C12.0717 15.2692 12.4216 14.4528 13.1214 13.753C13.8212 13.0532 14.6765 12.7033 15.6874 12.7033H16.6205C16.6205 12.5477 16.6205 12.3922 16.6205 12.2367V8.38777H14.2878C12.7326 8.38777 11.3719 8.95151 10.2055 10.079C9.03919 11.2064 8.45602 12.5866 8.45602 14.2195V53.992C8.45602 55.6249 9.03919 57.005 10.2055 58.1325C11.3719 59.26 12.7326 59.8237 14.2878 59.8237H46.7122C48.2674 59.8237 49.6281 59.26 50.7945 58.1325C51.9608 57.005 52.544 55.6249 52.544 53.992ZM18.9532 33.4643C18.1756 33.4643 17.4952 33.1921 16.912 32.6478C16.3289 32.1035 16.0373 31.4426 16.0373 30.665V26.1163C16.0373 25.3387 16.3289 24.6778 16.912 24.1335C17.4952 23.5892 18.1756 23.317 18.9532 23.317H23.5019C23.8129 23.317 24.0851 23.3559 24.3184 23.4337L25.718 21.2176C26.029 20.7511 26.4372 20.6733 26.9426 20.9843C27.4481 21.2954 27.5452 21.6841 27.2342 22.1507L25.718 24.4834C26.1068 24.9499 26.3011 25.4942 26.3011 26.1163V30.665C26.3011 31.4426 26.029 32.1035 25.4847 32.6478C24.9404 33.1921 24.2795 33.4643 23.5019 33.4643H18.9532ZM17.7868 26.1163V30.665C17.7868 31.3648 18.1756 31.7147 18.9532 31.7147H23.5019C24.2017 31.7147 24.5516 31.3648 24.5516 30.665V26.3495L22.2189 29.9652C22.0634 30.1985 21.869 30.3151 21.6358 30.3151C21.558 30.3929 21.5191 30.4318 21.5191 30.4318C21.2858 30.4318 21.0526 30.3151 20.8193 30.0818L18.7199 27.9824C18.3311 27.5936 18.3505 27.1854 18.7782 26.7578C19.2059 26.3301 19.6141 26.3495 20.0029 26.8161L21.2858 28.0991L23.2686 25.0666H18.9532C18.1756 25.0666 17.7868 25.4165 17.7868 26.1163ZM29.3336 27.3992C28.7116 27.3992 28.4006 27.1077 28.4006 26.5245C28.4006 25.9413 28.7116 25.6497 29.3336 25.6497H44.2629C44.885 25.6497 45.196 25.9413 45.196 26.5245C45.196 27.1077 44.885 27.3992 44.2629 27.3992H29.3336ZM29.3336 31.1316C28.7116 31.1316 28.4006 30.84 28.4006 30.2568C28.4006 29.6736 28.7116 29.382 29.3336 29.382H38.1979C38.8199 29.382 39.131 29.6736 39.131 30.2568C39.131 30.84 38.8199 31.1316 38.1979 31.1316H29.3336ZM18.9532 47.3438C18.1756 47.3438 17.4952 47.0716 16.912 46.5274C16.3289 45.9831 16.0373 45.3221 16.0373 44.5446V39.9958C16.0373 39.2182 16.3289 38.5379 16.912 37.9547C17.4952 37.3715 18.1756 37.0799 18.9532 37.0799H23.5019C23.8129 37.0799 24.0851 37.1577 24.3184 37.3132L25.718 35.0971C26.029 34.6306 26.4372 34.5528 26.9426 34.8639C27.4481 35.1749 27.5452 35.5637 27.2342 36.0302L25.718 38.3629C26.1068 38.8295 26.3011 39.3738 26.3011 39.9958V44.5446C26.3011 45.3221 26.029 45.9831 25.4847 46.5274C24.9404 47.0716 24.2795 47.3438 23.5019 47.3438H18.9532ZM17.7868 39.9958V44.5446C17.7868 45.2444 18.1756 45.5943 18.9532 45.5943H23.5019C24.2017 45.5943 24.5516 45.2444 24.5516 44.5446V40.1124L22.2189 43.8448C22.0634 44.078 21.869 44.1947 21.6358 44.1947C21.558 44.1947 21.5191 44.1947 21.5191 44.1947C21.2858 44.1947 21.0526 44.1169 20.8193 43.9614L18.7199 41.862C18.3311 41.4732 18.3505 41.065 18.7782 40.6373C19.2059 40.2096 19.6141 40.2291 20.0029 40.6956L21.2858 41.9786L23.2686 38.8295H18.9532C18.1756 38.8295 17.7868 39.2182 17.7868 39.9958ZM29.3336 41.2788C28.7116 41.2788 28.4006 40.9872 28.4006 40.404C28.4006 39.8209 28.7116 39.5293 29.3336 39.5293H44.2629C44.885 39.5293 45.196 39.8209 45.196 40.404C45.196 40.9872 44.885 41.2788 44.2629 41.2788H29.3336ZM29.3336 45.0111C28.7116 45.0111 28.4006 44.7195 28.4006 44.1363C28.4006 43.5532 28.7116 43.2616 29.3336 43.2616H38.1979C38.8199 43.2616 39.131 43.5532 39.131 44.1363C39.131 44.7195 38.8199 45.0111 38.1979 45.0111H29.3336Z" fill="#FF5C97"/>
</g>
<defs>
<clipPath id="clip0_1_65">
<rect width="60" height="61" fill="white" transform="matrix(1 0 0 -1 0.5 61.6899)"/>
</clipPath>
</defs>
</svg>
