<svg width="73" height="74" viewBox="0 0 73 74" fill="none" xmlns="http://www.w3.org/2000/svg">
<g clip-path="url(#clip0_1_33)">
<path d="M12.8413 14.0594C12.8413 14.0594 14.0626 12.8381 16.5053 10.3955C18.9479 7.95283 23.6354 6.73151 30.5679 6.73151C37.5003 6.73151 43.3859 9.17415 48.2247 14.0594C53.0634 18.9447 55.5061 24.8536 55.5526 31.786C55.5991 38.7184 53.1797 44.604 48.2945 49.4428C43.4092 54.2815 37.5003 56.7009 30.5679 56.7009C23.6354 56.7009 17.7266 54.2815 12.8413 49.4428C7.95602 44.604 5.51338 38.7184 5.51338 31.786C5.51338 24.8536 7.95602 18.9447 12.8413 14.0594ZM30.4981 9.10435C25.1941 9.10435 20.4716 10.7793 16.3308 14.1292C12.1899 17.4791 9.56119 21.7596 8.44455 26.9705H12.9111C13.1902 25.9469 13.7486 25.1095 14.586 24.4581C15.4235 23.8067 16.4006 23.481 17.5172 23.481C18.3547 23.481 19.1456 23.6904 19.8901 24.1091C20.6345 24.5279 21.2161 25.1095 21.6348 25.8539C22.0535 26.5983 22.2629 27.3893 22.2629 28.2267C22.2629 29.0642 22.0303 29.8552 21.565 30.5996L27.0086 36.0432C28.5905 35.0196 30.1724 35.0196 31.7543 36.0432L39.5707 28.2267C39.1055 27.4823 38.8728 26.6914 38.8728 25.8539C38.8728 24.5511 39.3381 23.4345 40.2686 22.504C41.1992 21.5734 42.3158 21.1082 43.6185 21.1082C44.5491 21.1082 45.34 21.2943 45.9914 21.6665L49.0621 18.7353C46.9219 15.7576 44.2234 13.4081 40.9665 11.6866C37.7097 9.96509 34.2202 9.10435 30.4981 9.10435ZM45.2935 27.5288C45.2935 27.5288 45.4098 27.4125 45.6424 27.1799C45.8751 26.9472 45.9914 26.5052 45.9914 25.8539C45.9914 25.2025 45.7588 24.6442 45.2935 24.1789C44.8282 23.7137 44.2699 23.481 43.6185 23.481C43.2463 23.481 42.8741 23.5741 42.5019 23.7602C42.1297 23.9463 41.8273 24.2255 41.5946 24.5977C41.362 24.9699 41.2457 25.3886 41.2457 25.8539C41.2457 26.5052 41.4783 27.0636 41.9436 27.5288C42.4089 27.9941 42.9672 28.2267 43.6185 28.2267C44.2699 28.2267 44.8282 27.9941 45.2935 27.5288ZM31.0564 41.7659C31.0564 41.7659 31.1727 41.6496 31.4054 41.417C31.638 41.1843 31.7543 40.7423 31.7543 40.091C31.7543 39.4396 31.5217 38.8813 31.0564 38.416C30.5911 37.9508 30.0328 37.7181 29.3815 37.7181C28.7301 37.7181 28.1718 37.9508 27.7065 38.416C27.2412 38.8813 27.0086 39.4396 27.0086 40.091C27.0086 40.7423 27.2412 41.3007 27.7065 41.7659C28.1718 42.2312 28.7301 42.4638 29.3815 42.4638C30.0328 42.4638 30.5911 42.2312 31.0564 41.7659ZM19.8901 28.2267C19.8901 27.5754 19.6574 27.017 19.1922 26.5518C18.7269 26.0865 18.1686 25.8539 17.5172 25.8539C16.8658 25.8539 16.3075 26.0865 15.8423 26.5518C15.377 27.017 15.1444 27.5754 15.1444 28.2267C15.1444 28.8781 15.377 29.4364 15.8423 29.9017C16.3075 30.3669 16.8658 30.5996 17.5172 30.5996C17.8894 30.5996 18.2616 30.4833 18.6338 30.2506C19.0061 30.018 19.3085 29.7156 19.5411 29.3434C19.7737 28.9712 19.8901 28.5989 19.8901 28.2267ZM41.5249 51.5365C47.015 48.5588 50.6208 44.069 52.3423 38.0671C54.0637 32.0652 53.3891 26.3191 50.3184 20.829L47.8059 23.3414C48.1781 24.0859 48.3642 24.9233 48.3642 25.8539C48.3642 27.1566 47.899 28.2733 46.9685 29.2038C46.0379 30.1343 44.9213 30.5996 43.6185 30.5996C42.7811 30.5996 41.9901 30.3669 41.2457 29.9017L33.4293 37.7181C33.8945 38.4625 34.1272 39.2535 34.1272 40.091C34.1272 41.3937 33.6619 42.5103 32.7314 43.4409C31.8008 44.3714 30.6842 44.8367 29.3815 44.8367C28.0787 44.8367 26.9621 44.3714 26.0315 43.4409C25.101 42.5103 24.6358 41.3937 24.6358 40.091C24.6358 39.2535 24.8684 38.4625 25.3337 37.7181L19.8901 32.2745C19.1456 32.7398 18.3547 32.9724 17.5172 32.9724C16.4006 32.9724 15.4235 32.6467 14.586 31.9954C13.7486 31.344 13.1902 30.46 12.9111 29.3434H8.02581C7.93276 30.1808 7.88623 31.0183 7.88623 31.8558C7.88623 38.0903 10.0962 43.3944 14.5163 47.7678C18.9363 52.1413 24.2635 54.3281 30.4981 54.3281C34.4063 54.3281 38.0819 53.3975 41.5249 51.5365ZM60.3681 13.8501C59.4375 13.8501 58.6001 13.6639 57.8556 13.2917L55.4828 15.6646C58.7396 20.5033 60.3681 25.8539 60.3681 31.7162C60.3681 37.5785 58.7396 42.9756 55.4828 47.9074L59.1119 51.5365L60.7868 53.2114L70.4178 62.8424C71.6275 64.0521 72.2323 65.5177 72.2323 67.2392C72.2323 68.9606 71.6275 70.4262 70.4178 71.6359C69.2081 72.8456 67.7425 73.4504 66.021 73.4504C64.2996 73.4504 62.834 72.8456 61.6243 71.6359L51.9933 62.0049L50.3184 60.33L46.6893 56.7009C40.1756 60.9813 33.1036 62.4469 25.4732 61.0977C17.8429 59.7484 11.6549 56.003 6.90918 49.8615C1.88432 43.3478 -0.0930536 36.0199 0.977055 27.8778C2.04716 19.7357 5.83907 13.1522 12.3528 8.1273C18.8665 3.10245 26.2177 1.12507 34.4063 2.19518C42.595 3.26528 49.1552 7.10372 54.087 13.7105L56.1807 11.6168C55.8085 10.8724 55.6224 10.0349 55.6224 9.10435C55.6224 7.80161 56.0876 6.68498 57.0182 5.75446C57.9487 4.82393 59.0653 4.35866 60.3681 4.35866C61.3917 4.35866 62.3454 4.68435 63.2294 5.33572C64.1134 5.98709 64.695 6.87109 64.9742 7.98772H72.2323V10.3606H64.9742C64.695 11.3842 64.1134 12.2216 63.2294 12.873C62.3454 13.5244 61.3917 13.8501 60.3681 13.8501ZM62.043 7.42941C62.043 7.42941 61.9267 7.31309 61.6941 7.08046C61.4614 6.84783 61.0194 6.73151 60.3681 6.73151C59.7167 6.73151 59.1584 6.96414 58.6931 7.42941C58.2279 7.89467 57.9952 8.45298 57.9952 9.10435C57.9952 9.56962 58.0883 9.98836 58.2744 10.3606C58.4605 10.7328 58.7396 11.0119 59.1119 11.198C59.4841 11.3842 59.9028 11.4772 60.3681 11.4772C61.0194 11.4772 61.5778 11.2446 62.043 10.7793C62.5083 10.314 62.7409 9.75573 62.7409 9.10435C62.7409 8.45298 62.5083 7.89467 62.043 7.42941ZM68.7428 64.5174L59.1119 54.8864L53.6683 60.33L63.2992 69.961C64.0437 70.7054 64.9509 71.0776 66.021 71.0776C67.0911 71.0776 67.9984 70.7054 68.7428 69.961C69.4873 69.2165 69.8595 68.3093 69.8595 67.2392C69.8595 66.169 69.4873 65.2618 68.7428 64.5174ZM57.4369 53.2114L54.087 49.8615C54.087 49.9546 54.0405 50.0476 53.9474 50.1407C53.8544 50.2337 53.8078 50.3268 53.8078 50.4198C53.6217 50.606 53.4356 50.7921 53.2495 50.9782C53.0634 51.2573 52.8773 51.49 52.6912 51.6761L52.412 51.9552L52.2725 52.0948C51.8072 52.5601 51.3419 53.0253 50.8767 53.4906C50.8767 53.4906 50.8301 53.5371 50.7371 53.6302C50.644 53.7232 50.551 53.8163 50.4579 53.9093C50.2718 54.0954 50.0392 54.2815 49.76 54.4676C49.5739 54.6538 49.3878 54.8399 49.2017 55.026C49.1087 55.026 49.0156 55.0725 48.9226 55.1655C48.8295 55.2586 48.7365 55.3051 48.6434 55.3051L51.9933 58.655L57.4369 53.2114ZM52.8308 47.6283C56.2737 42.8826 57.9952 37.5785 57.9952 31.7162C57.9952 25.8539 56.2737 20.5499 52.8308 15.8042C48.4573 9.66267 42.5252 5.96382 35.0344 4.7076C27.5437 3.45139 20.7275 5.01003 14.586 9.38351C8.44455 13.757 4.7457 19.6891 3.48948 27.1799C2.23327 34.6706 3.81517 41.51 8.23518 47.698C12.6552 53.8861 18.5873 57.5849 26.0315 58.7946C33.4758 60.0043 40.2686 58.4224 46.4101 54.0489C47.0615 53.6767 47.5733 53.3045 47.9455 52.9323C48.0386 52.8392 48.1316 52.7462 48.2247 52.6531C48.3177 52.5601 48.3642 52.5135 48.3642 52.5135C48.8295 52.1413 49.2482 51.7691 49.6205 51.3969C49.8066 51.2108 49.9927 51.0247 50.1788 50.8386C50.551 50.4664 50.9232 50.0476 51.2954 49.5824C51.2954 49.5824 51.3419 49.5358 51.435 49.4428C51.528 49.3497 51.6211 49.2567 51.7141 49.1636C52.0864 48.6984 52.4586 48.1866 52.8308 47.6283Z" fill="#FF5C97"/>
</g>
<defs>
<clipPath id="clip0_1_33">
<rect width="73" height="73" fill="white" transform="matrix(1 0 0 -1 0 73.59)"/>
</clipPath>
</defs>
</svg>
